<?xml version="1.0" encoding="utf-8"?>
<!-- Svg Vector Icons : http://www.onlinewebfonts.com/icon -->
<!DOCTYPE svg PUBLIC "-//W3C//DTD SVG 1.1//EN" "http://www.w3.org/Graphics/SVG/1.1/DTD/svg11.dtd">
<svg version="1.1" xmlns="http://www.w3.org/2000/svg" xmlns:xlink="http://www.w3.org/1999/xlink" x="0px" y="0px" viewBox="0 0 1000 1000" enable-background="new 0 0 1000 1000" xml:space="preserve">
<metadata> Svg Vector Icons : http://www.onlinewebfonts.com/icon </metadata>
<g><g transform="translate(0.000000,511.000000) scale(0.100000,-0.100000)"><path d="M241.5,3899.4c-21.1-7.7-59.4-38.3-86.2-67l-47.9-51.7l-5.7-3014.1C97.9-2550,90.2-2327.9,212.7-2391c49.8-24.9,595.5-28.7,4787.3-28.7c4191.7,0,4737.5,3.8,4787.3,28.7c122.6,63.2,114.9-158.9,111.1,3157.7l-5.7,3017.9l-63.2,61.3l-61.3,63.2l-4745.1,3.8C2414.9,3914.7,262.5,3909,241.5,3899.4z M9207,3305.8c130.2-78.5,122.5,90,116.8-2443.4l-5.7-2290.2l-70.8-65.1l-72.8-65.1H5007.7c-3893,0-4170.6,1.9-4222.4,32.6c-118.7,70.8-113-65.1-113,2418.5c0,2497-7.7,2334.3,120.6,2412.8c59.4,38.3,128.3,38.3,4207,38.3S9147.7,3344.1,9207,3305.8z M5114.9-1797.4c176.2-90,130.2-373.4-67-423.2c-113-28.7-252.8,67-271.9,187.7C4745.3-1841.5,4940.6-1707.4,5114.9-1797.4z"/><path d="M3190.4,2980.3c-430.8-67-813.8-254.7-1122.1-549.6c-197.2-187.7-316-344.7-425.1-557.2c-248.9-486.4-302.6-1022.6-155.1-1530C1846.2-895.5,3211.5-1512.1,4379.6-966.4c210.6,99.6,369.6,210.6,555.3,388.7c955.5,917.2,810,2498.9-298.7,3228.5c-333.2,220.2-674,327.5-1081.9,338.9C3418.3,2993.7,3253.6,2989.8,3190.4,2980.3z M3937.2,2675.8c407.9-107.2,811.9-388.7,1041.7-727.7c486.4-716.2,417.5-1648.7-168.5-2265.3c-363.8-383-798.5-574.5-1313.6-576.4c-484.5-1.9-896.2,160.8-1248.5,492.1C1719.8,96.4,1537.9,849,1783,1526.8c220.2,608.9,743,1051.3,1388.3,1177.7C3360.8,2740.9,3740,2727.5,3937.2,2675.8z"/><path d="M3452.8,2555.1c-57.4-57.4,1.9-139.8,68.9-97.6c44.1,26.8,47.9,55.5,13.4,90C3496.8,2583.9,3483.4,2585.8,3452.8,2555.1z"/><path d="M2300,2099.4c-55.5-55.5-47.9-86.2,46-187.7l84.3-90l-67-86.2c-90-116.8-189.6-327.5-227.9-488.3c-65.1-260.4-36.4-630,65.1-852.1l32.6-74.7l51.7,44l51.7,46l-36.4,93.8c-51.7,135.9-82.3,371.5-67,518.9c19.1,174.3,90,390.7,172.3,530.4c114.9,191.5,105.3,191.5,260.4,36.4l136-136l-57.4-103.4C2503,919.8,2642.8,408.5,3067.9,159.6c241.3-141.7,584-141.7,844.5,0c132.1,70.8,293,248.9,365.7,402.1c57.4,124.5,61.3,141.7,61.3,356.2c0,201.1-3.8,229.8-36.4,252.8c-24.9,19.2-46,21.1-70.9,9.6c-28.7-17.2-32.5-38.3-23-197.2c9.6-141.7,3.8-201.1-23-283.4c-68.9-208.7-195.3-352.3-392.6-446.2c-113-53.6-141.7-59.4-306.4-59.4c-157,0-197.2,7.7-291.1,51.7C3043,316.6,2907,450.7,2830.4,603.9c-55.5,114.9-61.3,141.7-61.3,308.3s5.7,193.4,63.2,314l63.2,134l166.6-166.6l166.6-166.6l-5.7-93.8c-13.4-170.4,93.8-289.2,260.4-289.2c164.7,0,279.6,111.1,279.6,271.9c0,164.7-116.8,273.8-296.8,273.8h-113l-473,474.9c-262.3,260.4-490.2,473-509.4,473C2353.6,2137.7,2321.1,2120.5,2300,2099.4z M3586.8,1007.9c46-47.9,55.5-68.9,44-111.1c-19.2-80.4-65.1-118.7-139.8-118.7c-91.9,0-137.9,46-137.9,136c0,55.5,11.5,80.4,49.8,111.1C3471.9,1080.7,3517.9,1074.9,3586.8,1007.9z"/><path d="M3437.4,2015.1c-19.1-47.9,0-97.7,38.3-103.4c51.7-11.5,91.9,47.9,67,93.8C3519.8,2047.7,3452.8,2053.4,3437.4,2015.1z"/><path d="M3443.2,1492.4c-24.9-23-13.4-97.7,15.3-109.2c65.1-24.9,126.4,46,84.3,95.8C3519.8,1507.7,3464.2,1515.4,3443.2,1492.4z"/><path d="M4731.9,1314.3c-23-13.4-23-40.2-3.8-176.2c13.4-88.1,23-197.2,23-241.3c0-145.5-57.4-373.4-137.9-540C4550,224.7,4504,163.4,4370,29.4c-256.6-256.6-524.7-367.6-882.8-367.6c-210.6,0-375.3,36.4-555.3,126.4l-124.5,61.3l-42.1-44c-24.9-23-44-47.9-44-51.7c0-5.7,59.4-40.2,134-76.6c348.5-176.2,737.2-201.1,1099.2-72.8c285.3,101.5,582.1,344.7,735.3,603.2c166.6,281.5,229.8,643.4,168.5,961.3C4829.6,1316.2,4797,1356.4,4731.9,1314.3z"/><path d="M1863.4,965.8c-57.4-57.5,1.9-139.8,68.9-97.7c44,26.8,47.9,55.5,13.4,90C1907.4,994.5,1894,996.4,1863.4,965.8z"/><path d="M2386.2,958.1c-34.5-34.5-30.6-63.2,13.4-90c67-42.1,126.4,40.2,68.9,97.7C2437.9,996.4,2424.5,994.5,2386.2,958.1z"/><path d="M2912.8,960c-38.3-47.9-15.3-95.7,47.9-95.7c40.2,0,59.4,9.6,63.2,34.5c7.7,40.2-26.8,90-63.2,90C2947.2,988.8,2926.2,975.3,2912.8,960z"/><path d="M3977.4,963.9c-49.8-36.4-24.9-109.2,38.3-109.2c53.6,0,80.4,47.9,51.7,91.9C4042.5,988.8,4017.7,992.6,3977.4,963.9z"/><path d="M4502.1,960c-36.4-44-15.3-95.7,42.1-101.5c65.1-7.7,95.7,65.1,42.1,105.3C4542.3,996.4,4530.8,994.5,4502.1,960z"/><path d="M5042.1,971.5c-15.3-7.7-23-36.4-19.1-61.3c3.8-34.5,17.2-46,53.6-46c36.4,0,49.8,11.5,53.6,46c5.8,38.3-21.1,78.5-53.6,78.5C5070.9,988.8,5055.5,981.1,5042.1,971.5z"/><path d="M3437.4,425.8c-19.1-47.9,0-97.7,38.3-103.4c51.7-11.5,91.9,47.9,67,93.8C3519.8,458.3,3452.8,464.1,3437.4,425.8z"/><path d="M2363.2,301.3c-187.7-116.8-147.4-411.7,65.1-482.6c199.1-65.1,394.5,124.5,335.1,323.6c-34.5,114.9-118.7,181.9-237.5,189.6C2447.4,337.7,2409.1,330,2363.2,301.3z"/><path d="M3443.2-97c-42.1-42.1,13.4-130.2,68.9-109.2c40.2,15.3,57.4,65.1,30.6,95.7C3519.8-81.7,3464.2-74,3443.2-97z"/><path d="M3454.7-614c-36.4-13.4-30.6-101.5,5.8-114.9c34.5-13.4,86.2,11.5,97.7,46c7.7,21.1-44,84.2-67,80.4C3483.4-602.5,3466.2-608.3,3454.7-614z"/><path d="M7071.9,2976.4c-13.4-13.4-23-72.8-23-134v-111.1h344.7h344.7v97.7c0,172.3,3.8,170.4-340.8,170.4C7186.8,2999.4,7087.2,2991.7,7071.9,2976.4z"/><path d="M6261.9,2541.7l-74.7-74.7V741.7c0-1884.2-5.7-1794.3,109.2-1870.9c51.7-34.5,103.4-36.4,1091.5-36.4c1018.7,0,1037.9,0,1091.5,40.2c28.7,21.1,68.9,68.9,88.1,105.3c30.7,61.3,32.6,174.3,28.7,1769.4c-5.7,1637.2-7.6,1706.2-42.1,1757.9c-74.7,111.1-51.7,109.2-1181.5,109.2h-1036L6261.9,2541.7z M8404.7,741.7c1.9-1219.8-1.9-1679.4-17.2-1698.5c-17.2-23-199.2-26.8-1005.3-26.8c-923,0-984.3,1.9-1001.5,34.5c-19.2,34.5-28.7,3278.3-9.6,3341.5c9.6,30.6,70.9,32.6,1018.7,28.7l1009.2-5.7L8404.7,741.7z"/><path d="M6520.4,1423.4c-3.8-13.4-5.8-149.4-3.8-300.6l5.7-277.7l859.8-5.7c675.9-3.8,863.6,0,877,19.2c17.2,28.7,21.1,515.1,3.8,559.1c-9.6,26.8-105.3,30.6-871.3,30.6C6704.3,1448.3,6528.1,1442.6,6520.4,1423.4z"/><path d="M6526.2,611.5c-7.7-5.7-13.4-143.6-13.4-304.5c0-247,3.8-293,30.6-302.6C6560.6-1.3,6947.5-7,7403.2-7c802.3,0,833,1.9,852.1,36.4c28.7,53.6,24.9,543.8-3.8,572.6c-17.2,17.2-235.5,23-867.4,23C6918.7,624.9,6531.9,619.2,6526.2,611.5z"/><path d="M6533.8-225.3c-15.3-17.2-21.1-116.8-17.2-310.2l5.7-285.3l850.2-5.7c610.8-1.9,857.9,1.9,875.1,17.2c42.1,34.5,38.3,540-3.8,580.2c-26.8,26.8-130.2,30.6-857.9,30.6C6702.4-198.5,6551.1-202.3,6533.8-225.3z"/><path d="M2933.8-2775.9c-229.8-114.9-333.2-419.4-220.2-645.3c44-86.2,137.9-181.9,227.9-229.8l76.6-42.1H5000c1895.8,0,1985.8,1.9,2048.9,36.4c183.8,97.6,275.8,245.1,277.7,442.3c0,113-9.6,149.4-55.5,235.5c-30.6,53.6-84.2,122.6-120.6,149.4c-143.6,109.2-30.6,103.4-2156.2,103.4H3035.3L2933.8-2775.9z"/></g></g>
</svg>