<?xml version="1.0" encoding="utf-8"?>
<!-- Svg Vector Icons : http://www.onlinewebfonts.com/icon -->
<!DOCTYPE svg PUBLIC "-//W3C//DTD SVG 1.1//EN" "http://www.w3.org/Graphics/SVG/1.1/DTD/svg11.dtd">
<svg version="1.1" xmlns="http://www.w3.org/2000/svg" xmlns:xlink="http://www.w3.org/1999/xlink" x="0px" y="0px" viewBox="0 0 1000 1000" enable-background="new 0 0 1000 1000" xml:space="preserve">
<metadata> Svg Vector Icons : http://www.onlinewebfonts.com/icon </metadata>
<g><g transform="translate(0.000000,511.000000) scale(0.100000,-0.100000)"><path d="M1225.4,4311.9c-340.9-30.7-664.6-90-923.2-170.5c-264.3-80.4-266.2-91.9-24.9-170.5c729.8-237.5,1658.7-241.3,2401.9-7.7c111.1,34.5,203,72.8,206.9,86.2c7.7,23-250.9,114.9-473.1,166.6C2096.9,4288.9,1503.2,4336.8,1225.4,4311.9z"/><path d="M8226.2,4311.9c-369.7-30.7-986.4-162.8-1101.4-237.5c-46-28.7-5.7-49.8,229.9-120.7c743.2-222.2,1616.6-220.3,2336.8,9.6c201.1,63.2,235.6,84.3,191.5,111.1c-36.4,24.9-300.7,105.3-459.7,141.7C9099.7,4288.9,8525,4334.8,8226.2,4311.9z"/><path d="M8389,3269.9v-325.6l-1086,3.8l-1086,5.7l-17.2,67c-28.7,116.8-24.9,114.9-408,114.9h-352.4l394.6-473.1c218.3-262.4,406.1-476.9,421.4-480.8c15.3-3.8,74.7,95.8,159,272l134.1,279.7h762.3H8073l3.8-143.7c5.7-273.9,126.4-545.9,283.5-637.8c95.8-55.6,226-49.8,316,15.3c128.3,90,235.6,329.5,260.5,582.3c11.5,103.4,5.8,136-28.7,206.9c-40.2,86.2-128.3,149.4-235.6,176.2l-53.6,11.5v325.6v325.6H8504H8389V3269.9z"/><path d="M1378.7,3250.7v-306.5l-51.7-11.5c-91.9-21.1-189.6-86.2-227.9-147.5c-76.6-128.3-23-484.6,103.4-685.7c191.5-300.7,513.3-229.9,653.2,143.7c46,122.6,84.3,373.5,67,440.5l-11.5,49.8h770h768.1l134.1-279.7c84.3-176.2,143.7-275.8,159-272c15.3,3.8,203,218.4,421.4,480.8l394.6,473.1h-352.4c-383.1,0-379.3,1.9-408-114.9l-17.2-67l-1086-5.7l-1086-3.8v306.5v306.5h-114.9h-114.9V3250.7z"/><path d="M4495,2647.4c-452-545.9-492.3-605.3-429.1-657c13.4-11.5,114.9-24.9,226-26.8l199.2-5.7l5.7-802.5c3.8-714.5,7.7-808.3,36.4-839s69-34.5,465.4-34.5c396.5,0,436.7,3.8,465.4,34.5s32.6,124.5,36.4,839l5.7,802.5l199.2,5.7c111.1,1.9,212.6,15.3,226,26.8c63.2,51.7,23,111.1-429.1,657c-377.3,454-463.5,545.9-503.8,545.9C4958.6,3193.3,4872.4,3101.3,4495,2647.4z"/><path d="M3748,21.3c-28.7-15.3-61.3-49.8-70.9-76.6C3665.7-82.1,3658-407.7,3658-808v-706.8l168.5-40.2c92-24.9,266.2-90,386.9-147.5c279.7-130.2,431-168.6,823.6-206.9c601.4-61.3,827.5-134.1,1045.8-340.9c72.8-69,80.4-72.8,137.9-51.7c120.7,42.1,118.8,23,118.8,1164.6c0,611-7.7,1053.5-19.2,1082.2C6284,42.4,6232.3,52,5690.3,52h-498l-5.8-291.1l-5.7-293.1h-182h-182l-5.7,293.1L4805.3,52h-501.8C3891.7,50.1,3792.1,44.3,3748,21.3z"/><path d="M1302-1601l-47.9-24.9l-5.7-919.4c-3.8-793,0-925.1,24.9-946.2c19.2-15.3,109.2-23,291.1-21.1c247.1,0,266.3,3.8,298.8,42.1c30.7,38.3,32.6,111.1,32.6,927.1v888.7l-49.8,38.3c-46,36.4-76.6,40.2-273.9,40.2C1432.3-1576.1,1332.7-1585.7,1302-1601z"/><path d="M2782.7-1721.7c-191.5-26.8-461.6-88.1-603.4-134.1c-70.9-23-93.8-40.2-109.2-88.1c-26.8-76.6-28.7-1109-1.9-1206.7c23-78.5,63.2-97.7,247.1-120.7c126.4-15.3,212.6-49.8,796.8-329.5c624.4-298.8,952-442.5,1087.9-478.8c137.9-34.5,227.9-26.8,817.9,63.2c237.5,36.4,526.7,80.4,641.7,95.8c145.6,19.2,245.2,44.1,325.6,82.4c147.5,68.9,722.1,459.7,829.4,563.1c145.6,139.8,178.1,254.7,90,312.2l-47.9,30.7l47.9,57.5c141.7,166.6-67,358.2-331.4,304.5c-128.3-24.9-293-113-417.5-218.3c-118.8-103.4-203-155.2-323.7-195.4c-231.8-76.6-844.7-113-1065-59.4c-59.4,13.4-201.1,63.2-314.1,109.2l-206.9,84.3l103.4,11.5c103.4,13.4,488.4-1.9,1022.8-42.1c308.4-21.1,362-13.4,446.3,65.1c67,61.3,137.9,212.6,137.9,293.1c0,95.8-120.7,216.4-272,272c-149.4,55.5-450.1,114.9-699.1,137.9c-513.3,49.8-515.2,49.8-771.9,172.4c-291.1,139.8-419.5,183.9-630.2,220.3C3389.8-1685.3,3022.1-1685.3,2782.7-1721.7z"/></g></g>
</svg>