<?xml version="1.0" encoding="utf-8"?>
<!-- Svg Vector Icons : http://www.onlinewebfonts.com/icon -->
<!DOCTYPE svg PUBLIC "-//W3C//DTD SVG 1.1//EN" "http://www.w3.org/Graphics/SVG/1.1/DTD/svg11.dtd">
<svg version="1.1" xmlns="http://www.w3.org/2000/svg" xmlns:xlink="http://www.w3.org/1999/xlink" x="0px" y="0px" viewBox="0 0 1000 1000" enable-background="new 0 0 1000 1000" xml:space="preserve">
<metadata> Svg Vector Icons : http://www.onlinewebfonts.com/icon </metadata>
<g><g transform="translate(0.000000,511.000000) scale(0.100000,-0.100000)"><path d="M4536.8,4166.3c-32.5-17.2-34.4-90-34.4-1079.5V2024.4h-206.7c-367.5,0-365.6-7.7,206.7-692.9c317.7-380.9,470.9-551.3,497.7-551.3c26.8,0,179.9,170.4,497.7,551.3c572.3,685.2,574.2,692.9,206.7,692.9h-206.7v1062.3c0,1029.8-1.9,1062.3-36.4,1081.4C5411.5,4193.1,4580.8,4193.1,4536.8,4166.3z"/><path d="M1286.7,1685.6c-189.5-9.6-465.1-45.9-650.8-86.1C402.4,1549.7,100,1454,100,1429.1c0-28.7,111-70.8,350.3-132.1c390.5-103.4,574.2-124.4,1056.6-124.4c486.2,1.9,702.5,30.6,1108.2,143.6c258.4,72.7,292.9,90,258.4,124.4c-38.3,38.3-394.3,137.8-639.3,181.8c-197.1,36.4-687.1,80.4-794.3,72.7C1413,1693.3,1344.1,1689.5,1286.7,1685.6z"/><path d="M8206.1,1679.9c-269.9-19.1-597.2-78.5-851.8-153.1c-225.9-67-277.5-97.6-212.5-132.1c68.9-38.3,507.2-151.2,721.6-187.6c290.9-47.9,983.8-47.9,1272.9,0c357.9,59.3,763.7,178,763.7,222c0,24.9-302.4,120.6-535.9,170.4C9004.2,1676.1,8567.8,1706.7,8206.1,1679.9z"/><path d="M8401.3,958.3c-7.7-5.7-13.4-153.1-13.4-325.4v-312l-1085.3,3.8l-1085.3,5.7l-17.2,67c-9.6,36.4-24.9,78.5-36.4,91.9c-15.3,17.2-271.8,23-1163.8,23c-892,0-1148.4-5.7-1163.7-23c-11.5-13.4-26.8-55.5-36.4-91.9l-17.2-67l-1085.3-5.7L1614,320.9l-5.7,300.5l-5.7,302.4l-109.1,5.7l-109.1,5.7l-5.7-312l-5.7-310.1l-65.1-13.4c-74.6-15.3-145.5-65.1-201-139.7c-32.5-42.1-40.2-80.4-40.2-199.1c1.9-266.1,114.8-520.6,277.5-631.6c93.8-63.2,239.3-51.7,338.8,26.8c135.9,111,237.3,365.6,239.3,612.5l1.9,122.5h769.5H3463l120.6-258.4c67-141.6,132.1-268,145.5-279.4c17.2-13.4,158.9-21.1,402-19.1h379l112.9-74.7c135.9-91.9,212.5-114.8,377.1-114.8c164.6,0,241.2,23,377.1,114.8l112.9,74.7l363.7-1.9c218.2,0,379,7.7,402,19.1c21.1,11.5,91.9,134,158.9,279.5L6537,91.2h767.5h767.5l3.8-124.4c9.6-363.7,183.8-652.7,403.9-675.7c105.3-9.6,176.1,19.1,256.5,105.3c118.7,126.3,218.2,434.5,201,624c-11.5,137.8-112.9,252.7-245,279.5l-65.1,13.4l-5.7,329.2l-3.8,329.2h-103.4C8458.7,971.7,8407,965.9,8401.3,958.3z"/><path d="M4483.2-944.3c-1489.1-63.2-2783-430.7-3294.1-936c-149.3-147.4-216.3-254.6-258.4-419.2C697.2-3216.3,2528.9-3966.6,5000-3966.6c2028.9,0,3680.7,509.1,4023.4,1238.4c114.8,243.1,74.6,509.1-114.8,742.7c-379,470.9-1370.5,836.4-2675.8,985.7c-308.2,34.5-1119.7,80.4-1318.8,72.7C4871.8-927.1,4678.4-936.6,4483.2-944.3z M5756.1-1267.8c1324.5-97.6,2406-415.4,2850-838.4c105.3-101.4,183.7-250.7,183.7-348.4c-1.9-243.1-317.7-516.8-844.1-729.2c-1544.7-627.8-4346.8-627.8-5891.5,0c-524.4,212.5-842.2,488.1-844.1,729.2c0,298.6,447.9,625.9,1175.2,859.4c520.6,166.5,1108.2,266,1954.3,333C4533-1246.7,5514.9-1250.5,5756.1-1267.8z"/><path d="M4578.9-1575.9c-602.9-38.3-1186.7-172.3-1521.7-348.4c-149.3-80.4-321.6-241.2-371.3-348.4c-55.5-118.7-51.7-245,9.6-369.4c170.4-340.7,840.3-595.3,1787.7-675.7c321.6-28.7,1037.4-11.5,1339.8,30.6c1085.3,151.2,1644.2,511.1,1508.3,974.3c-30.6,103.3-235.4,308.2-388.6,388.5c-354.1,183.8-905.4,308.2-1560,350.3C5036.4-1553,4933-1553,4578.9-1575.9z M5631.6-1901.3c620.2-65.1,1138.9-225.9,1339.8-417.3c97.6-91.9,99.5-149.3,9.6-246.9c-160.8-179.9-583.8-325.4-1205.9-419.2c-327.3-47.9-1223.1-47.9-1550.4,0c-622.1,93.8-1045.1,239.3-1205.9,419.2c-111,120.6-84.2,197.1,109.1,323.5C3583.6-1949.2,4667-1799.9,5631.6-1901.3z"/></g></g>
</svg>