<?xml version="1.0" encoding="utf-8"?>
<!-- Svg Vector Icons : http://www.onlinewebfonts.com/icon -->
<!DOCTYPE svg PUBLIC "-//W3C//DTD SVG 1.1//EN" "http://www.w3.org/Graphics/SVG/1.1/DTD/svg11.dtd">
<svg version="1.1" xmlns="http://www.w3.org/2000/svg" xmlns:xlink="http://www.w3.org/1999/xlink" x="0px" y="0px" viewBox="0 0 1000 1000" enable-background="new 0 0 1000 1000" xml:space="preserve">
<metadata> Svg Vector Icons : http://www.onlinewebfonts.com/icon </metadata>
<g><g transform="translate(0.000000,511.000000) scale(0.100000,-0.100000)"><path d="M1051.2,3060.3C667.7,3018.2,100,2870.5,100,2814.9c0-32.6,128.5-78.6,400.8-143.8c715.3-174.5,1509.3-153.4,2182.5,57.5c166.8,51.8,218.6,80.5,193.7,105.5c-32.6,30.7-467.9,149.6-696.2,189.9C1904.7,3071.9,1315.9,3091,1051.2,3060.3z"/><path d="M8078.1,3060.3c-314.5-32.6-895.6-170.7-955.1-226.3c-69.1-65.2,600.3-232.1,1089.3-272.3c408.5-32.6,866.9,5.8,1286.8,109.3c272.3,65.2,400.8,111.2,400.8,143.8c0,59.5-583,205.2-985.8,247.4C8687.9,3085.3,8302.5,3083.4,8078.1,3060.3z"/><path d="M8394.5,2026.7v-326H5000H1605.5v306.9v306.8h-115.1h-115.1v-303v-303l-82.5-21.1c-224.4-61.4-287.7-230.1-205.2-550.4c69-268.5,195.6-433.4,356.7-464.1c235.9-44.1,467.9,291.5,467.9,677v140h3083.8h3081.9l1.9-122.7c5.8-239.7,86.3-467.9,212.9-592.6c237.8-239.7,533.1-49.9,629,402.7c36.4,172.6,34.5,249.3-9.6,345.2c-38.3,88.2-122.7,151.5-224.4,170.7l-63.3,11.5v324.1v324.1h-115.1h-115.1V2026.7z"/><path d="M4562.7,1389.9c-30.7-30.7-28.8-82.5,3.8-109.3c17.3-15.3,151.5-21.1,443-17.3c374,5.8,420,9.6,439.2,40.3c15.3,23,15.3,42.2,0,67.1c-19.2,28.8-65.2,32.6-441.1,38.4C4697,1413,4580,1407.2,4562.7,1389.9z"/><path d="M4562.7,1159.8c-30.7-30.7-28.8-82.5,3.8-109.3c17.3-15.3,151.5-21.1,443-17.3c374,5.8,420,9.6,439.2,40.3c15.3,23,15.3,42.2,0,67.1c-19.2,28.8-65.2,32.6-441.1,38.4C4697,1182.8,4580,1177.1,4562.7,1159.8z"/><path d="M4562.7,929.7c-30.7-30.7-28.8-82.5,3.8-109.3c17.3-15.3,151.5-21.1,443-17.3c374,5.8,420,9.6,439.2,40.3c15.3,23,15.3,42.2,0,67.1c-19.2,28.8-65.2,32.6-441.1,38.3C4697,952.7,4580,946.9,4562.7,929.7z"/><path d="M2901.9,808.8c-40.3-40.3-38.4-92.1,3.8-128.5c82.5-71,907.1-554.2,935.9-548.5c17.3,3.8,49.9,28.8,71,57.5c76.7,101.6,53.7,120.8-441.1,391.2c-251.2,136.2-473.7,249.3-496.7,253.1C2951.8,837.6,2919.2,826.1,2901.9,808.8z"/><path d="M6524.7,580.6c-393.2-216.7-460.3-260.8-466-301.1c-5.7-53.7,59.4-151.5,101.6-151.5c26.9,0,876.4,500.5,935.9,552.3c17.3,15.3,32.6,44.1,32.6,61.4c0,42.2-61.4,95.9-107.4,94C7002.2,833.8,6777.8,720.6,6524.7,580.6z"/><path d="M4493.7,622.8c-38.4-55.6-134.2-174.5-211-262.7c-443-500.5-452.6-1100.8-23-1528.5c209-209,460.3-314.5,746-314.5c487.1,0,937.8,375.9,1031.8,859.2c47.9,247.4-15.3,552.3-161.1,780.5c-34.5,51.8-124.7,164.9-201.4,249.3c-76.7,84.4-163,189.9-189.9,235.9l-47.9,80.6h-151.5c-82.5,0-151.5-5.8-151.5-13.4c0-9.6,80.6-262.7,178.3-563.8c97.8-301.1,174.5-558.1,170.7-569.6c-3.8-13.4-23-23-42.2-23c-30.7,0-67.1,92.1-226.3,581.1C5084.4,534.6,5019.2,713,5000,713s-86.3-178.4-216.7-579.2c-155.3-479.4-195.6-581.1-224.4-581.1c-19.2,0-38.4,11.5-42.2,24.9c-5.8,11.5,71,268.5,168.8,569.6c99.7,301.1,180.3,552.3,180.3,561.9c0,7.7-67.1,13.4-151.5,13.4h-149.6L4493.7,622.8z M4812.1-380.2c23-47.9,47.9-86.3,55.6-86.3c7.7,0,36.4,38.3,63.3,86.3c28.8,47.9,59.5,86.3,69,86.3c7.7,0,40.3-42.2,71-95.9l55.6-95.9l42.2,86.3c44.1,90.1,88.2,124.7,120.8,92.1c28.8-28.8-115.1-312.6-159.2-312.6c-17.2,0-51.8,34.5-74.8,76.7c-24.9,42.2-49.9,76.7-57.5,76.7s-34.5-34.5-57.5-76.7c-24.9-42.2-57.5-76.7-74.8-76.7c-34.5,0-180.3,278.1-163,308.8C4727.7-270.9,4773.7-299.6,4812.1-380.2z"/><path d="M2815.6-326.5c-111.2-3.8-212.9-17.3-226.3-28.8c-38.4-30.7-30.7-126.6,11.5-149.6c23-11.5,176.4-19.2,364.4-19.2c303,0,327.9,1.9,347.1,36.4c28.8,55.6,23,94-19.2,136.2c-30.7,30.7-61.4,38.3-157.3,34.5C3068.8-318.8,2924.9-324.6,2815.6-326.5z"/><path d="M6712.6-341.8c-47.9-32.6-55.6-86.3-24.9-145.8c19.2-34.5,44.1-36.4,347.1-36.4c188,0,341.4,7.7,364.4,19.2c42.2,23,49.9,118.9,13.4,147.7c-13.4,11.5-166.9,24.9-341.4,32.6C6798.9-313.1,6749-315,6712.6-341.8z"/><path d="M3356.4-1249c-234-143.8-441.1-278.1-460.3-297.3c-30.7-30.7-30.7-38.3-5.8-86.3c17.3-28.8,46-53.7,63.3-57.5c32.6-5.8,884.1,448.8,958.9,510.1c67.1,59.4,11.5,197.5-80.5,193.7C3803.3-986.2,3607.7-1093.6,3356.4-1249z"/><path d="M6085.5-1032.2c-49.9-74.8-38.4-118.9,42.2-170.7c38.4-24.9,255.1-145.8,479.5-268.5c285.8-157.3,420-220.5,446.8-212.9c46,15.3,80.5,76.7,67.1,120.8c-15.3,44.1-901.4,579.2-958.9,579.2C6135.4-984.3,6104.6-1003.5,6085.5-1032.2z"/><path d="M4904.1-1703.5c-19.2-23-23-141.9-11.5-558.1c7.7-289.6,19.2-540.8,24.9-556.2c17.3-44.1,97.8-55.6,138.1-19.2c32.6,28.8,36.4,82.5,49.9,569.6c11.5,412.3,7.7,542.7-9.6,563.8C5065.2-1665.1,4934.8-1667.1,4904.1-1703.5z"/><path d="M4056.4-1870.3c-42.2-32.6-322.2-544.7-322.2-588.8c0-19.2,17.3-49.9,38.4-69c30.7-26.9,47.9-30.7,82.5-15.3c53.7,24.9,358.6,527.4,358.6,590.7c0,44.1-61.4,105.5-105.5,105.5C4096.7-1847.3,4073.7-1858.8,4056.4-1870.3z"/><path d="M5828.5-1878c-67.1-46-51.8-111.2,84.4-341.4c164.9-274.2,212.9-337.5,255.1-337.5c40.3,0,97.8,57.5,97.8,95.9s-285.8,561.9-322.2,590.7C5903.3-1839.7,5880.3-1841.6,5828.5-1878z"/></g></g>
</svg>