<?xml version="1.0" encoding="utf-8"?>
<!-- Svg Vector Icons : http://www.onlinewebfonts.com/icon -->
<!DOCTYPE svg PUBLIC "-//W3C//DTD SVG 1.1//EN" "http://www.w3.org/Graphics/SVG/1.1/DTD/svg11.dtd">
<svg version="1.1" xmlns="http://www.w3.org/2000/svg" xmlns:xlink="http://www.w3.org/1999/xlink" x="0px" y="0px" viewBox="0 0 1000 1000" enable-background="new 0 0 1000 1000" xml:space="preserve">
<metadata> Svg Vector Icons : http://www.onlinewebfonts.com/icon </metadata>
<g><g transform="translate(0.000000,511.000000) scale(0.100000,-0.100000)"><path d="M1050.5,1294.1C678.8,1253.9,100,1104.4,100,1046.9c0-34.5,264.5-118.8,574.9-182.1c665-134.1,1377.9-97.7,2008.4,97.7c86.2,26.8,168.6,61.3,184,76.7c32.6,30.7,9.6,40.2-245.3,115C2133.3,1296,1558.4,1345.9,1050.5,1294.1z"/><path d="M8081.7,1296c-323.9-36.4-908.4-176.3-967.8-231.9c-26.8-24.9,13.4-47.9,164.8-93.9c789.6-239.5,1592.5-247.2,2364.8-24.9c243.4,69,279.8,88.1,245.3,122.6c-34.5,34.5-438.8,143.7-695.6,189.7C8919.2,1305.6,8350,1324.8,8081.7,1296z"/><path d="M8388.4,261.2V-64.6l-1086.6,3.8L6215.2-55L6199.9,12c-36.4,141.8,32.6,134.2-1201.6,134.2C3768,146.2,3833.1,153.9,3791,14l-23-78.6H2687.1H1604.4V242v306.6h-115h-115V243.9V-60.8l-90.1-21.1c-237.6-61.3-295.1-312.4-157.1-682.2c136.1-362.2,436.9-440.8,634.3-162.9c82.4,113.1,151.4,343,153.3,507.9l1.9,143.7h764.6H3446L3572.5-538c70.9-145.6,141.8-274,157.1-287.5c21.1-17.2,141.8-23,406.3-24.9h377.5l99.7-67.1c243.4-164.8,525.1-164.8,764.6,0l97.7,67.1h379.4c343,0,383.3,3.8,417.8,34.5c19.2,21.1,88.2,149.5,151.4,287.5l115,253h768.5h766.6l1.9-122.6c3.8-427.4,249.1-760.8,504-684.2c109.2,32.6,182.1,103.5,249.1,237.6c59.4,122.7,115,339.2,115,454.2c0,153.3-109.2,283.6-262.5,316.2l-63.2,13.4v323.9V587h-115h-115V261.2z"/></g></g>
</svg>