<?xml version="1.0" encoding="utf-8"?>
<!-- Svg Vector Icons : http://www.onlinewebfonts.com/icon -->
<!DOCTYPE svg PUBLIC "-//W3C//DTD SVG 1.1//EN" "http://www.w3.org/Graphics/SVG/1.1/DTD/svg11.dtd">
<svg version="1.1" xmlns="http://www.w3.org/2000/svg" xmlns:xlink="http://www.w3.org/1999/xlink" x="0px" y="0px" viewBox="0 0 1000 1000" enable-background="new 0 0 1000 1000" xml:space="preserve">
<metadata> Svg Vector Icons : http://www.onlinewebfonts.com/icon </metadata>
<g><g transform="translate(0.000000,511.000000) scale(0.100000,-0.100000)"><path d="M1277.1,1440.6c-204.8-15.3-467-49.8-641.2-88C402.4,1302.8,100,1207.1,100,1182.2c0-28.7,112.9-70.8,352.2-132.1c608.7-158.9,1270.9-176.1,1881.5-47.9c245,51.7,534,135.9,549.3,160.8c17.2,26.8-24.9,51.7-160.8,93.8C2320.3,1388.9,1681,1469.3,1277.1,1440.6z"/><path d="M8282.6,1438.7c-327.3-19.1-698.6-86.1-976.2-172.3c-160.8-49.8-206.7-76.6-189.5-103.4c32.5-51.7,643.1-193.3,993.4-229.7c277.5-26.8,784.8-13.4,1043.2,30.6c342.6,57.4,746.5,176.1,746.5,218.2c0,28.7-327.3,128.2-597.2,181.8c-130.2,26.8-356,57.4-503.4,68.9C8541,1452.1,8489.3,1452.1,8282.6,1438.7z"/><path d="M3763.5,1126.7c-97.6-38.3-103.4-68.9-103.4-578V73.9h-1024H1614l-5.7,302.4l-5.7,300.5l-109.1,5.7l-109.1,5.7l-5.7-312l-5.7-310.1l-59.3-11.5C1162.3,22.3,1057-107.9,1057-262.9c1.9-197.1,97.6-472.8,206.7-587.6c118.7-126.3,283.3-143.6,413.4-44c135.9,103.4,239.3,361.8,245,610.6l1.9,128.2h869h867.1v-459.4c0-512.9,7.7-553.2,116.8-591.4c86.1-28.7,2360-28.7,2446.2,0c109.1,38.3,116.7,78.5,116.7,591.4v459.4h867.1h865.2l3.8-124.4c9.6-348.3,179.9-646.9,384.7-673.7c109.1-15.3,164.6,3.8,250.8,80.4c149.3,135.9,269.9,532.1,216.3,714c-26.8,86.1-130.1,189.5-210.5,206.7c-28.7,5.7-63.2,13.4-74.6,19.1c-19.1,3.8-24.9,88-24.9,333v327.3l-109.1-5.7l-111-5.7l-5.7-319.6l-3.8-321.6h-1024h-1024v476.6c0,478.5,0,478.5-45.9,532.1l-45.9,53.6l-528.3,5.7l-526.4,5.7l-5.7-292.9l-5.7-292.9H5000h-181.8l-5.7,292.9l-5.7,290.9l-501.5-1.9C4029.6,1143.9,3784.6,1136.3,3763.5,1126.7z"/></g></g>
</svg>