<?xml version="1.0" encoding="utf-8"?>
<!-- Svg Vector Icons : http://www.onlinewebfonts.com/icon -->
<!DOCTYPE svg PUBLIC "-//W3C//DTD SVG 1.1//EN" "http://www.w3.org/Graphics/SVG/1.1/DTD/svg11.dtd">
<svg version="1.1" xmlns="http://www.w3.org/2000/svg" xmlns:xlink="http://www.w3.org/1999/xlink" x="0px" y="0px" viewBox="0 0 1000 1000" enable-background="new 0 0 1000 1000" xml:space="preserve">
<metadata> Svg Vector Icons : http://www.onlinewebfonts.com/icon </metadata>
<g><g transform="translate(0.000000,511.000000) scale(0.100000,-0.100000)"><path d="M1805.6,4831.8c-99.6-15.3-275.9-53.6-392.7-84.3c-369.8-95.8-387-113-170.5-185.8c471.3-160.9,1199.3-206.9,1741.5-113c224.2,38.3,607.3,149.4,616.9,178.2c15.3,42.1-396.6,157.1-747.2,206.9C2604.5,4870.1,2047,4868.2,1805.6,4831.8z"/><path d="M8185.3,4843.3c-339.1-47.9-775.9-164.8-775.9-210.7c0-34.5,208.8-101.5,513.4-164.8c427.2-90,996.2-92,1431.1-7.7c275.9,51.7,546,137.9,546,172.4c0,32.6-199.2,95.8-517.3,164.8c-199.3,42.1-287.4,49.8-651.4,55.6C8499.5,4856.7,8254.3,4852.9,8185.3,4843.3z"/><path d="M8549.3,3923.7v-287.4h-973.2h-973.2l-26.8,82.4l-28.7,80.5l-1032.6,5.7c-733.8,1.9-1040.3-1.9-1057.5-17.2c-13.4-11.5-30.7-49.8-38.3-86.2l-11.5-65.1h-984.7h-984.7v277.8v277.8H2342h-95.8v-277.8v-275.9l-74.7-21.1c-166.7-44.1-224.2-139.8-206.9-350.6c11.5-149.4,61.3-302.7,136-415.7c63.2-95.8,197.3-162.8,295-143.7c95.8,17.2,218.4,147.5,270.1,285.5c47.9,130.3,84.3,339.1,67.1,404.2l-11.5,47.9h693.5h691.6l107.3-224.2c59.4-124.5,120.7-241.4,136-258.6c24.9-30.6,69-34.5,373.6-34.5c342.9,0,344.8,0,411.9-49.8c208.8-160.9,521.1-162.8,716.5-7.7l70.9,57.5h337.2c185.8,0,352.5,7.7,371.7,17.2c19.2,11.5,84.3,126.5,145.6,258.6l111.1,241.4h683.9h684l11.5-147.5c23-289.3,151.4-528.8,314.2-582.4c212.7-69,423.4,187.8,457.9,559.4c19.2,195.4-36.4,285.5-206.9,341l-72.8,24.9v285.5v285.5h-105.4h-105.4V3923.7z"/><path d="M338.1,2791.4c-220.3-168.6-283.5-312.3-206.9-463.6c19.2-34.5,155.2-222.2,304.6-419.6l274-358.3l-47.9-92c-42.1-82.4-46-109.2-38.3-245.2c15.3-268.2,155.2-536.4,406.2-772.1c222.2-212.7,454.1-300.8,645.6-247.1c49.8,13.4,65.1-3.8,348.7-377.4c252.9-331.5,308.5-394.7,375.5-421.5c90-36.4,149.4-38.3,222.2-11.5c67.1,26.8,352.5,233.7,346.8,252.9c-3.8,11.5-1348.8,1787.5-2285.6,3017.5l-195.4,254.8L338.1,2791.4z"/><path d="M5093.2,2437c-5.8-17.2-11.5-331.4-11.5-699.3v-668.6h-168.6c-178.2,0-214.6-15.3-214.6-88.1c0-57.5,756.7-965.6,802.7-965.6c46,0,806.6,913.9,806.6,969.4c0,69-38.3,84.3-214.6,84.3h-168.6v676.3c0,500-5.7,682-23,699.3c-17.2,17.3-134.1,23-410,23C5156.4,2467.7,5102.7,2463.8,5093.2,2437z"/><path d="M3229.1-524.9c5.8-34.5,99.6-954.1,206.9-2044.2c170.5-1716.6,203.1-1986.7,233.7-2025l34.5-46h1797.1c1756.8,0,1797.1,0,1831.5,38.3c28.7,30.6,63.2,331.4,231.8,2015.5c107.3,1088.2,201.2,2011.6,206.9,2051.9l7.7,70.9H5499.3H3219.5L3229.1-524.9z M4382.4-1084.3c34.5-15.3,74.7-47.9,88.1-72.8c23-42.1,245.2-2454.2,247.1-2668.7c0-115-34.5-170.5-122.6-201.2c-80.5-26.8-187.8,11.5-224.2,80.5c-23,42.1-245.2,2459.9-247.1,2668.7c0,105.4,36.4,168.6,115,199.3C4303.8-1053.6,4307.7-1053.6,4382.4-1084.3z M5635.4-1124.5l49.8-47.9l5.7-1371.7l3.8-1371.7l-65.1-65.1c-70.9-70.9-134.1-82.4-220.3-38.3c-28.7,15.3-61.3,49.8-74.7,78.5c-34.5,76.6-30.6,2722.4,3.8,2785.6C5397.8-1047.9,5545.3-1032.6,5635.4-1124.5z M6830.8-1136c30.7-32.6,51.7-78.6,51.7-109.2c0-28.7-51.7-639.9-115-1360.2c-90-1021.1-120.7-1316.2-145.6-1354.5c-74.7-115-270.2-93.9-321.9,32.6c-23,55.5-13.4,222.2,88.1,1385.1c63.2,728,124.5,1343,137.9,1369.8c26.8,61.3,137.9,116.9,201.2,103.5C6756.1-1074.7,6800.2-1105.4,6830.8-1136z"/></g></g>
</svg>