<?xml version="1.0" encoding="utf-8"?>
<!-- Svg Vector Icons : http://www.onlinewebfonts.com/icon -->
<!DOCTYPE svg PUBLIC "-//W3C//DTD SVG 1.1//EN" "http://www.w3.org/Graphics/SVG/1.1/DTD/svg11.dtd">
<svg version="1.1" xmlns="http://www.w3.org/2000/svg" xmlns:xlink="http://www.w3.org/1999/xlink" x="0px" y="0px" viewBox="0 0 1000 1000" enable-background="new 0 0 1000 1000" xml:space="preserve">
<metadata> Svg Vector Icons : http://www.onlinewebfonts.com/icon </metadata>
<g><g transform="translate(0.000000,511.000000) scale(0.100000,-0.100000)"><path d="M1277.1,4114.7c-204.8-15.3-467-49.8-641.2-88.1C402.4,3976.9,100,3881.2,100,3856.3c0-28.7,112.9-70.8,352.2-132.1c608.7-158.9,1272.9-176.1,1881.5-47.9c245,51.7,534,135.9,549.3,160.8c17.2,26.8-24.9,51.7-160.8,93.8C2320.3,4063,1681,4143.4,1277.1,4114.7z"/><path d="M8282.6,4112.8c-327.3-19.1-698.6-86.1-976.2-172.3c-160.8-49.8-206.7-76.6-189.5-103.4c32.5-51.7,643.1-193.3,993.4-229.7c275.6-26.8,780.9-13.4,1043.2,30.6c340.7,55.5,746.5,174.2,746.5,218.2c0,28.7-327.3,128.2-597.2,181.8c-130.2,26.8-356,57.4-503.4,68.9C8541,4126.2,8489.3,4126.2,8282.6,4112.8z"/><path d="M3763.5,3800.8c-97.6-38.3-103.4-68.9-103.4-578.1v-474.7h-1024H1614l-5.7,302.4l-5.7,300.5l-109.1,5.7l-109.1,5.7l-5.7-312l-5.7-310.1l-59.3-11.5c-151.2-32.5-256.5-162.7-256.5-317.7c1.9-197.1,97.6-472.8,206.7-587.6c275.6-292.9,652.7,36.4,656.5,572.3l1.9,122.5h869h869V2059c0-513,7.7-553.2,116.8-591.4c86.1-28.7,2360-28.7,2446.2,0c109.1,38.3,116.7,78.5,116.7,591.4v459.4h867.1h865.2l3.8-124.4c9.6-348.4,179.9-646.9,384.7-673.8c109.1-15.3,164.6,3.8,250.8,80.4c149.3,135.9,269.9,532.1,216.3,713.9c-26.8,86.1-130.1,189.5-210.5,206.7c-28.7,5.7-63.2,13.4-74.6,19.1c-19.1,3.8-24.9,88.1-24.9,333v327.3l-109.1-5.7l-111-5.7l-5.7-319.7l-3.8-321.6h-1024h-1024v476.6c0,478.5,0,478.5-45.9,532.1l-45.9,53.6l-528.3,5.7l-526.4,5.7l-5.7-292.9l-5.7-292.8H5000h-181.8l-5.7,292.8l-5.7,290.9l-501.5-1.9C4029.6,3818,3784.6,3810.4,3763.5,3800.8z"/><path d="M4533,1186.2c-26.8-26.8-30.6-128.2-30.6-832.6v-802h-187.6c-206.7,0-271.8-24.9-271.8-105.3c0-32.5,137.8-212.5,453.6-593.3c377.1-453.6,463.2-545.5,503.4-545.5c40.2,0,126.3,91.9,503.4,545.5C5819.2-766.2,5957-586.2,5957-553.7c0,80.4-65.1,105.3-271.8,105.3h-187.6v802c0,704.4-3.8,805.8-30.6,832.6C5423,1232.1,4577,1232.1,4533,1186.2z"/><path d="M1286.7-1420.8l-42.1-34.5v-903.4c0-677.6,5.7-913,23-934.1c19.1-21,82.3-26.8,298.6-26.8c260.3,0,275.6,1.9,302.4,42.1c26.8,38.3,30.6,156.9,30.6,926.4v886.2l-49.8,38.3c-45.9,36.4-76.6,40.2-285.2,40.2C1367.1-1386.3,1323.1-1392,1286.7-1420.8z"/><path d="M2756.7-1531.8c-246.9-36.4-627.8-134-664.2-170.4c-26.8-24.9-30.6-118.7-36.4-639.3l-5.7-610.6l44-49.8c34.4-38.3,72.7-53.6,187.6-70.8c183.8-26.8,220.1-42.1,909.2-369.4c691-331.1,916.8-428.7,1045.1-451.7c122.5-22.9,344.5-1.9,955.1,95.7c258.4,40.2,516.8,78.5,576.1,86.1c57.4,5.8,149.3,30.6,201,55.5c130.2,61.2,706.3,449.8,828.8,558.9c158.9,143.6,199.1,264.2,107.2,325.4l-47.9,30.7l47.9,57.4c143.6,170.3-67,361.7-333.1,306.3c-147.4-30.6-277.5-99.6-413.4-216.3c-223.9-195.2-438.3-258.4-937.9-277.5c-350.3-15.3-444.1,0-744.6,120.6l-227.8,91.9l93.8,15.3c95.7,13.4,654.6-9.6,1081.4-45.9c225.9-21,245-19.1,315.8,17.2c90,45.9,124.4,82.3,178,189.5c160.8,321.5-179.9,505.3-1079.5,579.9c-342.6,28.7-348.4,30.6-610.6,153.1c-426.8,201-625.9,250.7-1020.2,246.9C3061.1-1505,2858.2-1516.5,2756.7-1531.8z"/></g></g>
</svg>