<?xml version="1.0" encoding="utf-8"?>
<!-- Svg Vector Icons : http://www.onlinewebfonts.com/icon -->
<!DOCTYPE svg PUBLIC "-//W3C//DTD SVG 1.1//EN" "http://www.w3.org/Graphics/SVG/1.1/DTD/svg11.dtd">
<svg version="1.1" xmlns="http://www.w3.org/2000/svg" xmlns:xlink="http://www.w3.org/1999/xlink" x="0px" y="0px" viewBox="0 0 1000 1000" enable-background="new 0 0 1000 1000" xml:space="preserve">
<metadata> Svg Vector Icons : http://www.onlinewebfonts.com/icon </metadata>
<g><g transform="translate(0.000000,511.000000) scale(0.100000,-0.100000)"><path d="M1005.2,2247.6C610.1,2199.7,100,2065.4,100,2009.8c0-47.9,425.8-166.9,795.9-224.4c448.8-69,1098.9-38.4,1541.9,71c404.7,99.7,510.1,149.6,402.7,191.8C2340,2238,1595.9,2318.6,1005.2,2247.6z"/><path d="M8193.2,2264.9c-30.7-3.8-138.1-17.3-235.9-28.8c-266.6-30.7-782.5-161.1-838.1-212.9c-26.9-23,13.4-46,164.9-92.1c680.8-205.2,1369.3-241.7,2040.6-105.5c308.8,63.3,575.3,147.7,575.3,182.2c0,63.3-583,207.1-995.4,247.4C8709.1,2274.5,8325.5,2280.2,8193.2,2264.9z"/><path d="M8394.5,1221.6v-326l-1087.4,3.8l-1087.4,5.7l-15.3,67.1c-36.4,141.9,32.6,134.2-1204.4,134.2c-1237,0-1167.9,7.7-1204.4-134.2l-15.3-67.1l-1087.4-5.7l-1087.4-3.8v306.8v306.9h-115.1h-115.1v-304.9V899.4l-63.3-13.4c-180.3-38.4-276.2-180.3-257-381.6c46-477.5,337.5-763.3,596.4-584.9c145.8,99.7,260.8,372.1,264.7,625.2l1.9,140h765.2h765.2l126.6-262.7c71-145.7,141.9-274.2,157.3-287.7c21.1-17.3,141.9-23,406.6-24.9h377.8l99.7-67.1c243.6-164.9,523.6-164.9,767.1,0l99.7,67.1h377.8c341.4,0,381.6,3.8,416.1,34.5c19.2,21.1,88.2,149.6,151.5,287.7l115.1,253.2h769H8080l1.9-122.7c3.8-427.7,249.3-761.4,504.4-684.7c109.3,32.6,182.2,103.5,249.3,237.8c59.4,122.7,115.1,339.5,115.1,454.5c0,153.4-109.3,283.8-262.7,316.4l-63.3,13.4v324.1v324.1h-115.1h-115.1V1221.6z"/><path d="M4342.2-347.2c-51.8-57.5-38.4-109.3,46-186c105.5-94,278.1-174.5,443-203.3c268.5-47.9,577.3,40.3,776.7,220.5c90.1,84.4,92.1,86.3,63.3,140c-44.1,78.6-95.9,76.7-214.8-13.4c-149.6-113.2-281.9-159.2-466-159.2c-184.1,0-318.4,46-469.9,159.2C4403.6-303.1,4386.3-299.2,4342.2-347.2z"/><path d="M3951-794c-67.1-24.9-76.7-105.5-23-164.9c130.4-140,452.6-320.3,688.5-383.6c197.5-53.7,598.4-47.9,786.3,9.6c187.9,59.5,406.6,174.5,546.6,287.7c147.7,118.9,168.8,153.4,138.1,214.8c-42.2,84.4-109.3,72.9-235.9-38.3c-120.8-107.4-397-249.3-550.4-285.8c-178.3-42.2-379.7-47.9-550.4-13.4c-191.8,36.4-462.2,163-602.2,280C4025.8-784.4,4000.8-774.9,3951-794z"/><path d="M6400-1321.4c-834.2-726.8-2059.7-711.5-2871,36.4c-65.2,61.4-92.1,72.9-130.4,63.3c-26.8-7.7-59.5-34.5-71-61.4c-21.1-44.1-13.4-55.6,72.9-143.8c101.6-105.5,374-295.3,542.7-381.6c410.4-205.2,939.7-289.6,1378.9-222.5c458.4,71,916.7,287.7,1237,584.9c124.6,115.1,138.1,145.8,99.7,205.2C6611-1168,6557.3-1185.3,6400-1321.4z"/></g></g>
</svg>