<?xml version="1.0" encoding="utf-8"?>
<!-- Svg Vector Icons : http://www.onlinewebfonts.com/icon -->
<!DOCTYPE svg PUBLIC "-//W3C//DTD SVG 1.1//EN" "http://www.w3.org/Graphics/SVG/1.1/DTD/svg11.dtd">
<svg version="1.1" xmlns="http://www.w3.org/2000/svg" xmlns:xlink="http://www.w3.org/1999/xlink" x="0px" y="0px" viewBox="0 0 1000 1000" enable-background="new 0 0 1000 1000" xml:space="preserve">
<metadata> Svg Vector Icons : http://www.onlinewebfonts.com/icon </metadata>
<g><g transform="translate(0.000000,511.000000) scale(0.100000,-0.100000)"><path d="M1076.2,3922.9c-183.7-19.1-528.3-86.1-698.6-135.9c-206.7-59.3-277.5-90-277.5-118.7c0-21.1,313.9-120.6,516.8-162.7c275.6-59.3,547.4-86.1,874.7-86.1c394.3,0,679.5,34.4,1029.8,124.4c269.9,68.9,382.8,112.9,363.7,143.6c-32.5,51.7-602.9,191.4-932.2,227.8C1780.5,3934.4,1229.3,3940.2,1076.2,3922.9z"/><path d="M8033.8,3917.2c-348.4-42.1-913-189.5-914.9-239.3c0-32.5,86.1-63.2,357.9-134c352.2-90,637.4-124.4,1031.7-124.4c327.3,0,599.1,26.8,874.7,86.1c202.9,42.1,516.8,141.6,516.8,162.7c0,28.7-70.8,59.3-277.5,118.7c-352.2,101.4-591.5,134-1043.2,139.7C8353.4,3930.6,8108.4,3926.8,8033.8,3917.2z"/><path d="M8401.3,3216.7c-7.7-7.6-13.4-155-13.4-327.3c0-285.2-3.8-312-32.5-312c-19.1,0-507.2-1.9-1083.4-3.8l-1048.9-5.7l-19.1,76.6c-11.5,42.1-34.5,88-51.7,101.4c-38.3,30.6-2243.3,34.5-2300.7,3.8c-21.1-11.5-42.1-49.8-49.8-86.1c-5.7-36.4-21.1-74.6-34.5-82.3c-11.5-7.7-501.5-13.4-1087.2-13.4h-1068v302.4v300.5h-70.8c-40.2,0-91.9,5.7-114.8,11.5l-44,11.5V2876c0-315.8,0-317.7-42.1-317.7c-61.2,0-185.7-76.6-233.5-139.7c-34.5-45.9-40.2-80.4-38.3-210.5c5.7-329.2,164.6-620.2,365.6-664.2c248.8-57.4,482.3,266,486.2,675.7l1.9,128.3h769.4h767.5l112.9-243.1c160.8-350.3,126.3-331.1,580-331.1h377.1l95.7-67c233.5-158.9,557-155,761.8,9.6l70.8,57.4h382.8c461.3,0,426.8-21.1,585.7,331.1l112.9,243.1h767.5H8074l3.8-135.9c3.8-231.6,97.6-476.6,222-585.7c153.1-135.9,296.7-124.4,440.2,34.5c97.6,109.1,156.9,246.9,187.6,446c24.9,158.9,11.5,254.6-44,325.4c-45.9,57.4-168.5,126.3-227.8,126.3c-36.4,0-38.3,11.5-38.3,325.4V3209h-61.3c-34.5,0-80.4,5.7-101.4,11.5C8433.8,3226.2,8408.9,3224.3,8401.3,3216.7z"/><path d="M4936.8,1252.8C4910,1228,4699.5,979.1,4466,699.7c-424.9-513-463.2-572.3-398.1-625.9c13.4-11.5,114.8-24.9,225.9-26.8l199.1-5.7l5.7-1050.8c1.9-736.9,9.6-1058.5,24.9-1077.6c32.5-36.4,920.7-36.4,953.2,0c15.3,19.1,22.9,340.7,24.9,1077.6l5.7,1050.8l199.1,5.7c356,9.6,354.1,17.2-172.3,652.7c-417.3,503.4-501.5,595.3-534,595.3C4990.4,1294.9,4961.7,1275.8,4936.8,1252.8z"/><path d="M3842-745.5c-1025.9-111-1900.7-363.7-2409.8-696.7c-643.1-421.1-696.7-976.2-135.9-1427.9c474.7-384.8,1435.5-679.5,2622.3-805.8c465.1-49.8,1697.8-49.8,2162.9,0c1556.1,166.5,2643.3,597.2,2926.6,1161.9c141.6,283.3,101.4,530.2-126.3,807.7c-373.2,453.6-1441.3,826.9-2756.2,962.8c-402,40.2-359.8,55.5-359.8-124.4v-151.2l63.2-9.6c32.5-3.8,199.1-23,367.5-40.2c1293.9-134,2354.3-545.5,2557.2-993.4c93.8-206.7-9.6-409.6-317.7-624c-1050.8-725.4-3791.8-951.3-5711.6-469c-924.5,233.5-1514,601-1514,947.5c0,488.1,1135,985.7,2593.6,1138.9c168.4,17.2,335,36.3,369.4,40.2l61.3,9.6v151.2v153.1l-70.8-1.9C4123.4-718.7,3979.8-732.1,3842-745.5z"/><path d="M3956.8-1403.9c-981.9-176.1-1468.1-553.2-1265.2-985.7c139.7-300.5,664.2-532.1,1475.7-654.6c331.1-47.9,1334.1-47.9,1665.2,0c968.5,145.5,1521.7,449.8,1521.7,834.5c0,312-354.1,576.2-985.7,736.9c-170.4,42.1-514.9,107.2-578,107.2c-17.2,0-24.9-42.1-24.9-151.2V-1668l139.7-22.9c543.6-86.1,1018.3-275.6,1117.8-442.2c126.3-212.5-380.9-470.9-1171.4-595.3c-233.5-36.3-342.6-42.1-851.8-42.1c-648.9,0-899.6,26.8-1339.8,141.7c-392.4,103.3-708.2,292.8-708.2,423c0,109.1,201,254.6,499.6,357.9c162.7,57.4,514.9,141.7,692.9,166.6l90,11.5v153.1C4234.4-1338.8,4257.3-1348.4,3956.8-1403.9z"/></g></g>
</svg>